HIERARCHY
ROOT Hips
{
	OFFSET 0.000000 0.355653 0.000000
	CHANNELS 6 Xposition Yposition Zposition Zrotation Yrotation Xrotation 
	JOINT BN_Bip01_Pelvis
	{
		OFFSET 0.001385 -0.097144 -0.042259
		CHANNELS 3 Zrotation Yrotation Xrotation
		JOINT BN_leg_R_01
		{
			OFFSET -0.137791 0.060421 0.195317
			CHANNELS 3 Zrotation Yrotation Xrotation
			JOINT BN_leg_R_02
			{
				OFFSET -0.127778 -0.058327 0.049254
				CHANNELS 3 Zrotation Yrotation Xrotation
				JOINT BN_leg_R_03
				{
					OFFSET -0.182261 0.164187 0.088032
					CHANNELS 3 Zrotation Yrotation Xrotation
					JOINT BN_leg_R_04
					{
						OFFSET -0.075506 -0.093244 0.108442
						CHANNELS 3 Zrotation Yrotation Xrotation
						JOINT BN_leg_R_05
						{
							OFFSET -0.066323 -0.143714 0.082963
							CHANNELS 3 Zrotation Yrotation Xrotation
							End Site #name: BN_Leg_R_05Nub
							{
								OFFSET 0.008223 -0.180634 0.044677
							}
						}
					}
				}
			}
		}
		JOINT BN_leg_R_06
		{
			OFFSET -0.138420 0.035509 0.120057
			CHANNELS 3 Zrotation Yrotation Xrotation
			JOINT BN_Leg_R_07
			{
				OFFSET -0.090247 -0.112371 -0.044904
				CHANNELS 3 Zrotation Yrotation Xrotation
				JOINT BN_Leg_R_08
				{
					OFFSET -0.193457 0.244574 0.031610
					CHANNELS 3 Zrotation Yrotation Xrotation
					JOINT BN_Leg_R_09
					{
						OFFSET -0.152463 -0.100001 0.017686
						CHANNELS 3 Zrotation Yrotation Xrotation
						JOINT BN_Leg_R_10
						{
							OFFSET -0.106366 -0.146412 0.015324
							CHANNELS 3 Zrotation Yrotation Xrotation
							End Site #name: BN_Leg_R_10Nub
							{
								OFFSET -0.055024 -0.179808 0.007017
							}
						}
					}
				}
			}
		}
		JOINT BN_Leg_R_11
		{
			OFFSET -0.135395 0.041295 0.027078
			CHANNELS 3 Zrotation Yrotation Xrotation
			JOINT BN_Leg_R_12
			{
				OFFSET -0.108844 -0.068995 -0.102870
				CHANNELS 3 Zrotation Yrotation Xrotation
				JOINT BN_Leg_R_13
				{
					OFFSET -0.283612 0.205390 -0.103856
					CHANNELS 3 Zrotation Yrotation Xrotation
					JOINT BN_Leg_R_14
					{
						OFFSET -0.133832 -0.079693 -0.097507
						CHANNELS 3 Zrotation Yrotation Xrotation
						JOINT BN_Leg_R_15
						{
							OFFSET -0.115811 -0.144183 -0.109942
							CHANNELS 3 Zrotation Yrotation Xrotation
							End Site #name: BN_Leg_R_15Nub
							{
								OFFSET -0.037504 -0.198523 -0.082493
							}
						}
					}
				}
			}
		}
		JOINT BN_Leg_L_11
		{
			OFFSET 0.136441 0.015960 0.043582
			CHANNELS 3 Zrotation Yrotation Xrotation
			JOINT BN_Leg_L_12
			{
				OFFSET 0.122569 -0.037706 -0.103657
				CHANNELS 3 Zrotation Yrotation Xrotation
				JOINT BN_Leg_L_13
				{
					OFFSET 0.295322 0.178819 -0.119229
					CHANNELS 3 Zrotation Yrotation Xrotation
					JOINT BN_Leg_L_14
					{
						OFFSET 0.141702 -0.062798 -0.098724
						CHANNELS 3 Zrotation Yrotation Xrotation
						JOINT BN_Leg_L_15
						{
							OFFSET 0.117384 -0.139215 -0.114578
							CHANNELS 3 Zrotation Yrotation Xrotation
							End Site #name: BN_Leg_L_15Nub
							{
								OFFSET 0.021222 -0.201050 -0.082169
							}
						}
					}
				}
			}
		}
		JOINT BN_leg_L_06
		{
			OFFSET 0.127175 0.010755 0.136183
			CHANNELS 3 Zrotation Yrotation Xrotation
			JOINT BN_Leg_L_07
			{
				OFFSET 0.139565 -0.057519 0.001151
				CHANNELS 3 Zrotation Yrotation Xrotation
				JOINT BN_Leg_L_08
				{
					OFFSET 0.196508 0.228122 0.087098
					CHANNELS 3 Zrotation Yrotation Xrotation
					JOINT BN_Leg_L_09
					{
						OFFSET 0.150971 -0.089265 0.052894
						CHANNELS 3 Zrotation Yrotation Xrotation
						JOINT BN_Leg_L_10
						{
							OFFSET 0.074997 -0.162432 0.031250
							CHANNELS 3 Zrotation Yrotation Xrotation
							End Site #name: BN_Leg_L_10Nub
							{
								OFFSET -0.019489 -0.187098 -0.004782
							}
						}
					}
				}
			}
		}
		JOINT BN_leg_L_01
		{
			OFFSET 0.122120 0.036197 0.211097
			CHANNELS 3 Zrotation Yrotation Xrotation
			JOINT BN_leg_L_02
			{
				OFFSET 0.098964 -0.029918 0.107081
				CHANNELS 3 Zrotation Yrotation Xrotation
				JOINT BN_leg_L_03
				{
					OFFSET 0.145673 0.134033 0.169530
					CHANNELS 3 Zrotation Yrotation Xrotation
					JOINT BN_leg_L_04
					{
						OFFSET 0.054509 -0.068333 0.136069
						CHANNELS 3 Zrotation Yrotation Xrotation
						JOINT BN_leg_L_05
						{
							OFFSET 0.060835 -0.137132 0.097105
							CHANNELS 3 Zrotation Yrotation Xrotation
							End Site #name: BN_Leg_L_05Nub
							{
								OFFSET -0.002555 -0.186155 0.005670
							}
						}
					}
				}
			}
		}
		JOINT BN_Eye_L_01
		{
			OFFSET 0.044635 0.276371 0.393959
			CHANNELS 3 Zrotation Yrotation Xrotation
			JOINT BN_Eye_L_02
			{
				OFFSET 0.022325 -0.005102 0.030904
				CHANNELS 3 Zrotation Yrotation Xrotation
				JOINT BN_Eye_L_03
				{
					OFFSET 0.051583 0.048870 0.053339
					CHANNELS 3 Zrotation Yrotation Xrotation
					End Site #name: BN_Eye_L_04
					{
						OFFSET 0.094442 0.115468 0.063789
					}
				}
			}
		}
		JOINT BN_Eye_R_01
		{
			OFFSET -0.039908 0.284250 0.388826
			CHANNELS 3 Zrotation Yrotation Xrotation
			JOINT BN_Eye_R_02
			{
				OFFSET -0.026499 -0.001431 0.027844
				CHANNELS 3 Zrotation Yrotation Xrotation
				JOINT BN_Eye_R_03
				{
					OFFSET -0.044253 0.061236 0.046755
					CHANNELS 3 Zrotation Yrotation Xrotation
					End Site #name: BN_Eye_R_04
					{
						OFFSET -0.070536 0.134599 0.056827
					}
				}
			}
		}
		JOINT BN_Arm_L_01
		{
			OFFSET 0.123538 0.070264 0.297533
			CHANNELS 3 Zrotation Yrotation Xrotation
			JOINT BN_Arm_L_02
			{
				OFFSET 0.239058 0.067886 0.133467
				CHANNELS 3 Zrotation Yrotation Xrotation
				JOINT BN_Arm_L_03
				{
					OFFSET 0.009897 0.079834 0.115571
					CHANNELS 3 Zrotation Yrotation Xrotation
					End Site #name: BN_Arm_L_04
					{
						OFFSET -0.052434 0.086212 0.083041
					}
				}
			}
		}
		JOINT BN_Arm_R_01
		{
			OFFSET -0.123499 0.066352 0.280577
			CHANNELS 3 Zrotation Yrotation Xrotation
			JOINT BN_Arm_R_02
			{
				OFFSET -0.262180 0.121720 0.166928
				CHANNELS 3 Zrotation Yrotation Xrotation
				JOINT BN_Arm_R_03
				{
					OFFSET -0.047185 0.144567 0.248779
					CHANNELS 3 Zrotation Yrotation Xrotation
					End Site #name: BN_Arm_R_04
					{
						OFFSET 0.091969 0.172364 0.168721
					}
				}
			}
		}
	}
}
MOTION
Frames: 5
Frame Time: 0.041667
-0.000000 0.355653 -0.000000 0.324792 -0.031150 9.896449 -0.325324 -0.025134 -9.896443 10.198979 -8.109432 -22.718198 5.202954 23.183285 8.802713 30.771563 -40.350896 -27.318458 -12.996767 -8.972152 -0.119324 -19.284280 -11.578032 14.654923 2.545469 5.669651 4.765501 -9.760078 28.766992 -35.135748 -6.809703 -67.577403 -30.288955 -14.345355 -11.999426 14.114747 -14.193870 -5.607032 14.628802 34.953976 10.035016 36.524501 -15.653512 -33.850216 -19.048180 -6.157499 8.223696 -14.094352 -0.035130 -0.279569 0.119893 -0.315131 -1.295457 0.175514 28.846877 75.606202 -103.337647 -74.161426 -22.511104 -24.947905 76.025090 -8.045440 46.466358 26.832976 -2.970808 26.958699 27.063546 -13.012559 43.932032 -39.455626 14.287207 -139.178279 -128.138402 13.178017 27.014673 145.302478 72.763818 5.343889 65.723279 13.574690 -7.365798 62.429335 8.612745 -11.454388 -69.473052 -22.530695 -63.276992 -53.704957 -20.143213 52.283969 -57.132013 43.786875 -117.202528 20.788192 8.519991 -43.685243 45.733041 34.332156 -38.502538 -73.885196 -23.081750 -49.132774 -49.505152 -36.912299 50.831052 1.158042 -18.517184 16.552467 -75.491399 58.577130 65.965491 40.738602 -52.550740 40.036576 17.815790 -2.276458 17.592443 -4.087950 -2.429455 -7.513477 -21.297556 -11.367773 7.778263 -2.416069 -3.555033 17.363097 -38.863906 -5.810174 55.826173 1.830489 -27.309463 -36.987668 26.456082 -13.608739 -22.144279 
0.000198 0.355653 -0.006024 1.089387 0.613160 11.204016 -0.325324 -0.025134 -9.896443 8.313443 -8.075627 -23.300899 6.188696 22.631760 9.312565 29.519839 -38.910113 -27.868246 -13.094675 -9.130538 0.585238 -19.350904 -11.550915 15.537847 1.504237 6.211859 4.889330 -9.667679 28.741083 -35.164111 -7.407897 -67.212266 -29.938215 -14.310670 -12.100127 14.237900 -14.153830 -5.657935 14.775802 35.062964 9.839136 36.217986 -16.296949 -33.969371 -18.445480 -6.141228 8.575934 -14.843732 0.075340 -0.314660 0.058469 -0.176188 -1.340105 0.101008 21.709511 75.355534 -108.187723 -76.080158 -24.432192 -24.543502 78.311458 -7.741298 47.265117 26.502976 -3.133670 26.415370 26.976057 -13.019362 43.145955 -39.675623 13.365132 -137.889926 -128.357880 13.206440 27.125469 143.798705 73.844217 4.023721 65.802284 13.596335 -7.354293 62.509167 8.622648 -11.449079 -68.821376 -23.461175 -62.194516 -52.880161 -19.446279 51.118526 -56.228925 42.901084 -114.446850 20.920954 8.655458 -43.774616 45.928962 34.469900 -38.538918 -73.885196 -23.081750 -49.132774 -51.334735 -37.373162 53.433860 1.065325 -18.723639 16.615454 -75.491399 58.577130 65.965491 41.094824 -53.175607 39.836100 18.385027 -2.593033 17.962906 -3.070262 -4.411903 -9.040800 -21.718146 -10.221955 6.850348 -2.902377 -2.714116 16.462940 -38.783009 -6.044456 55.703127 1.323782 -27.155201 -36.974804 26.091256 -12.998603 -22.192580 
0.000593 0.355653 -0.018031 2.839477 1.976478 14.289035 -0.325324 -0.025134 -9.896443 4.018605 -8.323484 -24.709816 8.572964 21.252229 10.503137 26.563308 -35.479487 -29.285162 -13.328382 -9.502478 2.307950 -19.518340 -11.468328 17.670656 -0.935738 7.173298 5.173796 -9.346757 28.652493 -35.258632 -8.748098 -66.208209 -29.256886 -14.222396 -12.355040 14.559922 -14.053252 -5.786564 15.159992 35.306641 9.331312 35.493980 -17.566153 -34.183328 -17.260420 -6.426660 9.453105 -16.540802 0.374214 -0.418366 -0.102432 0.196150 -1.460886 -0.096470 7.944259 74.053984 -117.168672 -79.808170 -28.000786 -23.571442 82.653913 -7.068308 48.621603 25.906132 -3.432859 25.434718 26.811273 -13.031237 41.710318 -39.948261 11.364482 -135.123348 -128.721621 13.255239 27.311918 138.276858 76.252991 -0.872095 66.115854 13.674377 -7.313495 62.823997 8.661912 -11.427427 -66.996912 -25.533722 -60.172408 -51.269365 -17.984274 48.814737 -55.045360 40.808883 -108.887522 21.061429 8.801913 -43.866316 46.142592 34.617380 -38.577045 -73.885196 -23.081750 -49.132774 -55.200519 -38.014558 59.081265 0.830765 -19.186598 16.809272 -75.491399 58.577130 65.965491 41.795288 -54.460569 39.368294 19.672819 -3.368568 18.696594 -0.640851 -8.854112 -12.093886 -22.669014 -8.226486 5.211907 -3.963066 -0.977766 14.555281 -38.698180 -6.643998 55.549382 -0.004053 -26.748921 -36.959645 25.126456 -11.390527 -22.344539 
0.001157 0.355653 -0.035148 4.927790 3.366507 18.114972 -0.325324 -0.025134 -9.896443 -1.245461 -8.530609 -26.445373 12.230670 18.989247 12.234578 21.881111 -30.944454 -31.133518 -13.625810 -9.925620 4.462116 -19.730685 -11.343504 20.316493 -3.995904 8.731644 5.469263 -8.872376 28.522855 -35.396703 -10.477344 -65.200783 -28.112492 -14.164164 -12.526254 14.768366 -13.987901 -5.873823 15.412815 35.787340 9.034775 34.726206 -19.392429 -34.455093 -15.551171 -6.758804 10.403786 -18.635162 0.802346 -0.560715 -0.336314 0.727335 -1.629301 -0.380931 -4.645097 71.391489 -124.507299 -84.008233 -31.731391 -22.198030 87.315684 -6.451876 50.039995 25.313680 -3.737723 24.461140 26.649029 -13.048125 40.275052 -39.581841 8.756551 -131.703716 -128.673439 13.247815 27.284684 124.359013 78.673660 -13.321564 66.773479 13.834732 -7.221161 63.482471 8.745560 -11.383467 -63.821545 -28.518869 -58.433798 -48.722703 -15.372012 45.066749 -52.996554 38.296673 -100.377266 21.257241 9.002903 -43.996129 46.432682 34.820442 -38.627286 -73.885196 -23.081750 -49.132774 -59.080104 -38.156050 65.043007 0.502698 -19.712714 17.156897 -75.491399 58.577130 65.965491 42.522200 -56.020203 38.756066 21.218259 -4.304987 19.532057 2.483654 -14.173347 -15.831372 -23.842125 -6.023090 3.298854 -5.288548 1.024386 12.262759 -38.606772 -7.602614 55.372445 -1.993160 -26.151520 -36.988539 23.661895 -8.971778 -22.624137 
0.001852 0.355653 -0.056259 6.643329 4.328954 21.408429 -0.325324 -0.025134 -9.896443 -6.112821 -8.208078 -28.013688 16.668565 16.018699 14.164810 16.036369 -26.446866 -33.023617 -13.916045 -10.287142 6.493157 -19.924509 -11.208258 22.775370 -6.875176 11.040601 5.665269 -8.344938 28.378381 -35.557231 -12.168266 -64.833772 -26.460348 -14.217590 -12.372601 14.581277 -14.047157 -5.796491 15.185780 36.372230 9.312494 34.325736 -21.562325 -34.715078 -13.519008 -6.750174 10.998995 -20.498347 1.267213 -0.712946 -0.591261 1.307506 -1.812591 -0.689849 -12.325406 68.234646 -128.037369 -87.851287 -34.857593 -20.704701 91.348435 -6.226109 51.360587 24.855141 -3.986112 23.698927 26.523950 -13.065047 39.150038 -38.371908 6.074852 -128.507567 -127.941736 13.149825 26.917042 103.700455 79.537972 -31.763327 67.471948 14.008528 -7.119547 64.178998 8.832316 -11.338529 -59.812359 -32.014772 -57.780612 -45.446720 -11.356468 39.993258 -49.922632 36.130800 -90.131766 21.335116 9.081313 -44.043805 46.546501 34.896946 -38.644883 -73.885196 -23.081750 -49.132774 -60.832143 -37.573272 68.158524 0.135189 -20.092602 17.677664 -75.492621 58.577430 65.963826 42.861754 -57.429849 38.192947 22.518413 -5.094250 20.203652 5.384295 -18.567403 -19.209025 -24.856259 -4.267856 1.678599 -6.455710 2.652194 10.313801 -38.513152 -8.903028 55.171460 -4.453023 -25.432072 -37.103726 21.817918 -5.965183 -23.061330 
